<mxfile host="65bd71144e" modified="2021-02-09T21:02:27.213Z" agent="5.0 (Macintosh; Intel Mac OS X 11_0_0) AppleWebKit/537.36 (KHTML, like Gecko) Code/1.52.1 Chrome/83.0.4103.122 Electron/9.3.5 Safari/537.36" etag="uF5n0AZ9t_IeezTwmgyB" version="13.10.0" type="embed">
    <diagram id="fp5n8K5wV-1dMlIHT02_" name="ページ1">
        <mxGraphModel dx="658" dy="529" grid="1" gridSize="10" guides="1" tooltips="1" connect="1" arrows="1" fold="1" page="1" pageScale="1" pageWidth="827" pageHeight="1169" math="0" shadow="0">
            <root>
                <mxCell id="0"/>
                <mxCell id="1" parent="0"/>
                <mxCell id="30" value="" style="shape=table;html=1;whiteSpace=wrap;startSize=0;container=1;collapsible=0;childLayout=tableLayout;" parent="1" vertex="1">
                    <mxGeometry x="170" y="131" width="570" height="559" as="geometry"/>
                </mxCell>
                <mxCell id="33" value="" style="shape=partialRectangle;html=1;whiteSpace=wrap;collapsible=0;dropTarget=0;pointerEvents=0;fillColor=none;top=0;left=0;bottom=0;right=0;points=[[0,0.5],[1,0.5]];portConstraint=eastwest;" parent="30" vertex="1">
                    <mxGeometry width="570" height="559" as="geometry"/>
                </mxCell>
                <mxCell id="34" value="" style="shape=partialRectangle;html=1;whiteSpace=wrap;connectable=0;overflow=hidden;fillColor=none;top=0;left=0;bottom=0;right=0;" parent="33" vertex="1">
                    <mxGeometry width="570" height="559" as="geometry"/>
                </mxCell>
                <mxCell id="70" value="プロフィールの設定" style="text;html=1;resizable=0;autosize=1;align=left;verticalAlign=middle;points=[];fillColor=none;strokeColor=none;rounded=0;fontSize=20;" vertex="1" parent="1">
                    <mxGeometry x="350" y="210" width="190" height="30" as="geometry"/>
                </mxCell>
                <mxCell id="97" value="" style="shape=table;html=1;whiteSpace=wrap;startSize=0;container=1;collapsible=0;childLayout=tableLayout;fontSize=20;" vertex="1" parent="1">
                    <mxGeometry x="230" y="277" width="460" height="328" as="geometry"/>
                </mxCell>
                <mxCell id="98" value="" style="shape=partialRectangle;html=1;whiteSpace=wrap;collapsible=0;dropTarget=0;pointerEvents=0;fillColor=none;top=0;left=0;bottom=0;right=0;points=[[0,0.5],[1,0.5]];portConstraint=eastwest;align=left;" vertex="1" parent="97">
                    <mxGeometry width="460" height="52" as="geometry"/>
                </mxCell>
                <mxCell id="99" value="　よんでID" style="shape=partialRectangle;html=1;whiteSpace=wrap;connectable=0;fillColor=none;top=0;left=0;bottom=0;right=0;overflow=hidden;align=left;" vertex="1" parent="98">
                    <mxGeometry width="172" height="52" as="geometry"/>
                </mxCell>
                <mxCell id="101" value="　Guest　&lt;u&gt;変更はこちらから&lt;/u&gt;" style="shape=partialRectangle;html=1;whiteSpace=wrap;connectable=0;fillColor=none;top=0;left=0;bottom=0;right=0;overflow=hidden;align=left;" vertex="1" parent="98">
                    <mxGeometry x="172" width="288" height="52" as="geometry"/>
                </mxCell>
                <mxCell id="102" value="" style="shape=partialRectangle;html=1;whiteSpace=wrap;collapsible=0;dropTarget=0;pointerEvents=0;fillColor=none;top=0;left=0;bottom=0;right=0;points=[[0,0.5],[1,0.5]];portConstraint=eastwest;" vertex="1" parent="97">
                    <mxGeometry y="52" width="460" height="52" as="geometry"/>
                </mxCell>
                <mxCell id="103" value="　ニックネーム" style="shape=partialRectangle;html=1;whiteSpace=wrap;connectable=0;fillColor=none;top=0;left=0;bottom=0;right=0;overflow=hidden;align=left;" vertex="1" parent="102">
                    <mxGeometry width="172" height="52" as="geometry"/>
                </mxCell>
                <mxCell id="105" value="　ゲスト　&lt;u&gt;変更はこちらから&lt;/u&gt;" style="shape=partialRectangle;html=1;whiteSpace=wrap;connectable=0;fillColor=none;top=0;left=0;bottom=0;right=0;overflow=hidden;align=left;" vertex="1" parent="102">
                    <mxGeometry x="172" width="288" height="52" as="geometry"/>
                </mxCell>
                <mxCell id="116" style="shape=partialRectangle;html=1;whiteSpace=wrap;collapsible=0;dropTarget=0;pointerEvents=0;fillColor=none;top=0;left=0;bottom=0;right=0;points=[[0,0.5],[1,0.5]];portConstraint=eastwest;" vertex="1" parent="97">
                    <mxGeometry y="104" width="460" height="52" as="geometry"/>
                </mxCell>
                <mxCell id="117" value="　メールアドレス" style="shape=partialRectangle;html=1;whiteSpace=wrap;connectable=0;fillColor=none;top=0;left=0;bottom=0;right=0;overflow=hidden;align=left;" vertex="1" parent="116">
                    <mxGeometry width="172" height="52" as="geometry"/>
                </mxCell>
                <mxCell id="118" value="　guest@guest　&lt;u&gt;変更はこちらから&lt;/u&gt;" style="shape=partialRectangle;html=1;whiteSpace=wrap;connectable=0;fillColor=none;top=0;left=0;bottom=0;right=0;overflow=hidden;align=left;" vertex="1" parent="116">
                    <mxGeometry x="172" width="288" height="52" as="geometry"/>
                </mxCell>
                <mxCell id="106" value="" style="shape=partialRectangle;html=1;whiteSpace=wrap;collapsible=0;dropTarget=0;pointerEvents=0;fillColor=none;top=0;left=0;bottom=0;right=0;points=[[0,0.5],[1,0.5]];portConstraint=eastwest;" vertex="1" parent="97">
                    <mxGeometry y="156" width="460" height="52" as="geometry"/>
                </mxCell>
                <mxCell id="107" value="　プロフィール画像" style="shape=partialRectangle;html=1;whiteSpace=wrap;connectable=0;fillColor=none;top=0;left=0;bottom=0;right=0;overflow=hidden;align=left;" vertex="1" parent="106">
                    <mxGeometry width="172" height="52" as="geometry"/>
                </mxCell>
                <mxCell id="109" value="　□　&lt;u&gt;変更はこちらから&lt;/u&gt;" style="shape=partialRectangle;html=1;whiteSpace=wrap;connectable=0;fillColor=none;top=0;left=0;bottom=0;right=0;overflow=hidden;align=left;" vertex="1" parent="106">
                    <mxGeometry x="172" width="288" height="52" as="geometry"/>
                </mxCell>
                <mxCell id="110" style="shape=partialRectangle;html=1;whiteSpace=wrap;collapsible=0;dropTarget=0;pointerEvents=0;fillColor=none;top=0;left=0;bottom=0;right=0;points=[[0,0.5],[1,0.5]];portConstraint=eastwest;" vertex="1" parent="97">
                    <mxGeometry y="208" width="460" height="120" as="geometry"/>
                </mxCell>
                <mxCell id="111" value="　自己紹介" style="shape=partialRectangle;html=1;whiteSpace=wrap;connectable=0;fillColor=none;top=0;left=0;bottom=0;right=0;overflow=hidden;align=left;" vertex="1" parent="110">
                    <mxGeometry width="172" height="120" as="geometry"/>
                </mxCell>
                <mxCell id="112" value="" style="shape=partialRectangle;html=1;whiteSpace=wrap;connectable=0;fillColor=none;top=0;left=0;bottom=0;right=0;overflow=hidden;align=left;" vertex="1" parent="110">
                    <mxGeometry x="172" width="288" height="120" as="geometry"/>
                </mxCell>
                <mxCell id="122" value="自己紹介を更新する" style="text;html=1;fillColor=#1ba1e2;align=center;verticalAlign=middle;whiteSpace=wrap;rounded=0;fontSize=12;strokeColor=#006EAF;fontColor=#ffffff;" vertex="1" parent="1">
                    <mxGeometry x="413" y="577" width="190" height="20" as="geometry"/>
                </mxCell>
                <mxCell id="123" value="&lt;span&gt;　ゲストユーザーです。&lt;/span&gt;" style="rounded=0;whiteSpace=wrap;html=1;strokeColor=#f0f0f0;fontSize=12;align=left;verticalAlign=top;" vertex="1" parent="1">
                    <mxGeometry x="414" y="500" width="256" height="70" as="geometry"/>
                </mxCell>
            </root>
        </mxGraphModel>
    </diagram>
</mxfile>
